<svg width="512" height="512" viewBox="0 0 512 512" xmlns="http://www.w3.org/2000/svg" role="img">
  <title>IngenuityAI app icon</title>
  <desc>IngenuityAI rotor mark on dark teal rounded square background, suitable for app icons and favicons</desc>
  <rect x="0" y="0" width="512" height="512" rx="112" fill="#063D2E"/>
  <rect x="0" y="0" width="512" height="512" rx="112" fill="#0A4A36"/>
  <g transform="translate(256,256)">
    <path fill="#FFFFFF" fill-opacity="0.06" d="M0,0 C-8,-38 -4,-88 16,-116 C26,-132 38,-134 42,-122 C48,-100 34,-60 12,-12 Z"/>
    <path fill="#FFFFFF" fill-opacity="0.06" d="M0,0 C38,-8 88,-4 116,16 C132,26 134,38 122,42 C100,48 60,34 12,12 Z"/>
    <path fill="#FFFFFF" fill-opacity="0.06" d="M0,0 C8,38 4,88 -16,116 C-26,132 -38,134 -42,122 C-48,100 -34,60 -12,12 Z"/>
    <path fill="#FFFFFF" fill-opacity="0.06" d="M0,0 C-38,8 -88,4 -116,-16 C-132,-26 -134,-38 -122,-42 C-100,-48 -60,-34 -12,-12 Z"/>
    <path fill="#0A5C45" d="M0,0 C-10,-42 -5,-100 19,-130 C31,-148 48,-150 52,-136 C60,-110 42,-64 16,-16 Z"/>
    <path fill="#1DB88E" d="M0,0 C42,-10 100,-5 130,19 C148,31 150,48 136,52 C110,60 64,42 16,16 Z"/>
    <path fill="#0F8F6E" d="M0,0 C10,42 5,100 -19,130 C-31,148 -48,150 -52,136 C-60,110 -42,64 -16,16 Z" opacity="0.9"/>
    <path fill="#5DCAA5" d="M0,0 C-42,10 -100,5 -130,-19 C-148,-31 -150,-48 -136,-52 C-110,-60 -64,-42 -16,-16 Z" opacity="0.75"/>
    <circle fill="#063D2E" cx="0" cy="0" r="34"/>
    <circle fill="#3DC49A" cx="0" cy="0" r="18"/>
    <circle fill="#E8FBF5" cx="0" cy="0" r="6"/>
  </g>
</svg>
