<svg width="200" height="200" viewBox="0 0 200 200" xmlns="http://www.w3.org/2000/svg" role="img">
  <title>IngenuityAI icon mark</title>
  <desc>Abstract four-blade rotor mark representing the IngenuityAI brand</desc>
  <g transform="translate(100,100)">
    <path fill="#0A5C45" d="M0,0 C-10,-40 -5,-95 18,-124 C30,-143 46,-145 50,-130 C58,-105 40,-60 16,-16 Z"/>
    <path fill="#1DB88E" d="M0,0 C40,-10 95,-5 124,18 C143,30 145,46 130,50 C105,58 60,40 16,16 Z"/>
    <path fill="#0F8F6E" d="M0,0 C10,40 5,95 -18,124 C-30,143 -46,145 -50,130 C-58,105 -40,60 -16,16 Z" opacity="0.85"/>
    <path fill="#5DCAA5" d="M0,0 C-40,10 -95,5 -124,-18 C-143,-30 -145,-46 -130,-50 C-105,-58 -60,-40 -16,-16 Z" opacity="0.7"/>
    <circle fill="#063D2E" cx="0" cy="0" r="20"/>
    <circle fill="#3DC49A" cx="0" cy="0" r="10"/>
    <circle fill="#E8FBF5" cx="0" cy="0" r="3.5"/>
  </g>
</svg>
